<svg xmlns="http://www.w3.org/2000/svg" version="1.1" xmlns:xlink="http://www.w3.org/1999/xlink" xmlns:svgjs="http://svgjs.dev/svgjs" width="1500" height="1500" viewBox="0 0 1500 1500"><rect width="1500" height="1500" fill="#ffffff"></rect><g transform="matrix(0.6666666666666666,0,0,0.6666666666666666,249.39393939393938,438.5856950067477)"><svg viewBox="0 0 396 247" data-background-color="#ffffff" preserveAspectRatio="xMidYMid meet" height="935" width="1500" xmlns="http://www.w3.org/2000/svg" xmlns:xlink="http://www.w3.org/1999/xlink"><g id="tight-bounds" transform="matrix(1,0,0,1,0.2400000000000091,-0.09999999999999432)"><svg viewBox="0 0 395.52 247.2" height="247.2" width="395.52"><g><svg></svg></g><g><svg viewBox="0 0 395.52 247.2" height="247.2" width="395.52"><mask id="be11bd20-3d2e-4d4c-aae9-9f0a0774122f"><rect width="395.52" height="247.2" fill="white"></rect><g transform="matrix(1,0,0,1,0,99.01569260574749)" id="clone"><svg viewBox="0 0 395.52 49.168614788505" height="49.168614788505" width="395.52"><g><svg viewBox="0 0 395.52 49.168614788505" height="49.168614788505" width="395.52"><g><svg viewBox="0 0 395.52 49.168614788505" height="49.168614788505" width="395.52"><g><svg viewBox="0 0 395.52 49.168614788505" height="49.168614788505" width="395.52"><g id="SvgjsG3101"><svg viewBox="0 0 395.52 49.168614788505" height="49.168614788505" width="395.52" id="SvgjsSvg3100"><g><svg viewBox="0 0 395.52 49.168614788505" height="49.168614788505" width="395.52"><g transform="matrix(1,0,0,1,0,0)"><svg width="395.52" viewBox="-1 -36 310.67 39.5" height="49.168614788505" data-palette-color="#000000"><path d="M35.45-32.5L35.75-30.9 31.5-29.35 31.5 0 26.35 0.55 8.6-27.85 9.5-20.9 9.5-2.85 13.95-2.35 13.9 0 1.8 0 1.5-1.6 5.75-3.15 5.75-29.75 2.5-30.15 2.55-32.5 11.45-32.5 28.65-4.8 27.7-11.6 27.7-29.6 22.85-30.15 22.9-32.5 35.45-32.5ZM54.05-12.85L41.2-13.1Q41.2-8.15 43.47-5.6 45.75-3.05 49.4-3.05L49.4-3.05Q52.1-3.05 55.8-4.7L55.8-4.7 56.55-2.55 48.75 0.75Q43.25 0.75 39.87-2.63 36.5-6 36.5-11.3L36.5-11.3Q36.5-16.7 39.82-20.55 43.15-24.4 47.95-24.4L47.95-24.4Q50.55-24.4 52.62-23.25 54.7-22.1 55.82-20.1 56.95-18.1 56.9-15.65L56.9-15.65 54.05-12.85ZM45.45-21.35L45.45-21.35Q42.6-19.85 41.6-15.75L41.6-15.75 52.55-16.25Q52.05-18.65 50.07-20.1 48.1-21.55 45.45-21.35ZM73.5-12.4L80.5-3.15Q82.7-2.9 83.8-2.4L83.8-2.4 83.5 0 73.3 0 73.05-1.65 75.9-2.75 70.45-9.8 65.55-3.1Q67.34-2.85 68.5-2.4L68.5-2.4 68.2 0 58.05 0 57.8-1.65 60.84-2.8 68.5-12.3 61.95-20.75 59.09-20.95 59.15-23.4 68.9-23.4 69.2-21.6 67.15-20.8 71.7-14.8 76.09-20.8 73.45-20.95 73.5-23.4 82.59-23.4 82.9-21.6 79.9-20.45 73.5-12.4ZM110.69-3.75L111.44-1.55 106.39 0.75Q105.59 0.65 104.42-0.5 103.24-1.65 102.79-2.95L102.79-2.95Q100.29-1.35 97.49-0.3 94.69 0.75 93.14 0.75L93.14 0.75Q90.39 0.15 88.74-2.5L88.74-2.5Q87.94-3.65 87.89-7.05L87.89-7.05 87.89-20.6 84.14-20.3 83.54-22.65Q86.89-24.1 90.34-24.2L90.34-24.2 92.34-22.45 92.34-7.4Q92.49-3.1 95.64-3.1L95.64-3.1Q98.39-3.1 102.64-5.7L102.64-5.7 102.64-20.6 98.89-20.3 98.29-22.65Q101.64-24.1 105.09-24.2L105.09-24.2 107.09-22.45 107.09-4.3Q107.09-3.3 108.39-3.3L108.39-3.3Q109.14-3.3 110.69-3.75L110.69-3.75ZM118.09-18.5L118.09-18.5Q118.09-16.9 119.39-15.95 120.69-15 123.39-13.8L123.39-13.8 126.34-12.45Q130.64-10.2 130.64-6.25L130.64-6.25Q130.64-3.05 128.24-1.03 125.84 1 122.04 1L122.04 1Q117.89 1 113.19-1.6L113.19-1.6 115.04-6Q119.74-2.8 124.94-2.1L124.94-2.1Q126.29-3.3 126.29-5 126.29-6.7 125.04-7.75 123.79-8.8 120.12-10.43 116.44-12.05 115.17-13.58 113.89-15.1 113.89-17.25L113.89-17.25Q113.89-20.4 116.57-22.4 119.24-24.4 123.39-24.4L123.39-24.4Q126.89-24.4 129.79-22.9L129.79-22.9Q129.94-19.25 128.94-16.45L128.94-16.45 126.24-16.45 125.89-20.3Q123.39-21.4 120.64-21.4L120.64-21.4 119.69-21.35Q118.09-20.35 118.09-18.5ZM170.54-8.6L170.54-8.6Q170.54-4.4 167.39-1.7 164.24 1 159.49 1L159.49 1Q156.79 1 153.64 0.08 150.49-0.85 148.94-2.45L148.94-2.45 148.89-4.2Q148.89-7.9 149.44-10.9L149.44-10.9 152.14-10.9 152.84-4.9Q156.29-2.3 161.19-2.3L161.19-2.3 162.89-2.4Q165.79-3.95 165.79-7.5L165.79-7.5Q165.79-10.55 162.29-12.55L162.29-12.55 154.19-16.75Q149.14-19.75 149.14-24.45L149.14-24.45Q149.14-28.45 152.44-30.98 155.74-33.5 160.79-33.5L160.79-33.5Q164.29-33.5 169.04-31.95L169.04-31.95 169.09-30.2Q169.09-26.55 168.54-23.5L168.54-23.5 165.84-23.5 165.34-28.05Q162.49-30.25 158.49-30.25L158.49-30.25 156.19-30.05Q153.79-28.6 153.79-25.5L153.79-25.5Q153.79-22.65 157.24-20.75L157.24-20.75 165.24-16.7Q170.54-13.65 170.54-8.6ZM192.48-2L185.68 0.75Q180.28 0.8 177.03-2.63 173.78-6.05 173.78-11.7L173.78-11.7Q173.78-17.25 177.01-20.83 180.23-24.4 185.18-24.4L185.18-24.4Q189.38-24.4 192.78-21.1L192.78-21.1 190.13-17.55Q185.73-20.95 181.53-21.25L181.53-21.25Q178.43-17.65 178.43-12.7L178.43-12.7Q178.43-8.4 180.56-5.68 182.68-2.95 186.43-2.95L186.43-2.95Q189.03-2.95 191.63-4.1L191.63-4.1 192.48-2ZM214.08-23.15L214.08-23.15Q214.28-19.45 213.18-15.05L213.18-15.05 210.48-15.05 209.93-20.55Q205.88-18.3 203.08-14.6L203.08-14.6 203.08-3.3Q206.73-3.05 208.23-2.4L208.23-2.4 207.93 0 195.23 0 194.98-1.65 198.63-3 198.63-20.6 194.88-20.3 194.28-22.65Q197.63-24.1 201.08-24.2L201.08-24.2 203.08-22.45 203.08-17.9 208.33-23.5Q209.78-24.1 210.98-24.1L210.98-24.1Q212.58-24.1 214.08-23.15ZM232.93-12.85L220.08-13.1Q220.08-8.15 222.35-5.6 224.63-3.05 228.28-3.05L228.28-3.05Q230.98-3.05 234.68-4.7L234.68-4.7 235.43-2.55 227.63 0.75Q222.13 0.75 218.75-2.63 215.38-6 215.38-11.3L215.38-11.3Q215.38-16.7 218.7-20.55 222.03-24.4 226.83-24.4L226.83-24.4Q229.43-24.4 231.5-23.25 233.58-22.1 234.7-20.1 235.83-18.1 235.78-15.65L235.78-15.65 232.93-12.85ZM224.33-21.35L224.33-21.35Q221.48-19.85 220.48-15.75L220.48-15.75 231.43-16.25Q230.93-18.65 228.95-20.1 226.98-21.55 224.33-21.35ZM255.48-12.85L242.63-13.1Q242.63-8.15 244.9-5.6 247.18-3.05 250.83-3.05L250.83-3.05Q253.53-3.05 257.23-4.7L257.23-4.7 257.98-2.55 250.18 0.75Q244.68 0.75 241.3-2.63 237.93-6 237.93-11.3L237.93-11.3Q237.93-16.7 241.25-20.55 244.58-24.4 249.38-24.4L249.38-24.4Q251.98-24.4 254.05-23.25 256.13-22.1 257.25-20.1 258.38-18.1 258.33-15.65L258.33-15.65 255.48-12.85ZM246.88-21.35L246.88-21.35Q244.03-19.85 243.03-15.75L243.03-15.75 253.98-16.25Q253.48-18.65 251.5-20.1 249.53-21.55 246.88-21.35ZM283.97-15.35L283.97-3.2Q286.52-2.85 287.47-2.4L287.47-2.4 287.17 0 276.92 0 276.67-1.65 279.52-2.75 279.52-14.8Q279.52-20.2 276.32-20.2L276.32-20.2Q273.42-20.2 268.52-16.45L268.52-16.45 268.52-3.15Q270.62-2.9 271.77-2.4L271.77-2.4 271.47 0 260.77 0 260.52-1.65 264.07-2.95 264.07-20.6 260.32-20.3 259.72-22.65Q263.07-24.1 266.52-24.2L266.52-24.2 268.52-22.45 268.52-19.15Q276.02-24.2 278.72-24.2L278.72-24.2Q280.17-23.95 281.65-22.73 283.12-21.5 283.55-20.2 283.97-18.9 283.97-15.35L283.97-15.35ZM294.62-18.5L294.62-18.5Q294.62-16.9 295.92-15.95 297.22-15 299.92-13.8L299.92-13.8 302.87-12.45Q307.17-10.2 307.17-6.25L307.17-6.25Q307.17-3.05 304.77-1.03 302.37 1 298.57 1L298.57 1Q294.42 1 289.72-1.6L289.72-1.6 291.57-6Q296.27-2.8 301.47-2.1L301.47-2.1Q302.82-3.3 302.82-5 302.82-6.7 301.57-7.75 300.32-8.8 296.65-10.43 292.97-12.05 291.7-13.58 290.42-15.1 290.42-17.25L290.42-17.25Q290.42-20.4 293.1-22.4 295.77-24.4 299.92-24.4L299.92-24.4Q303.42-24.4 306.32-22.9L306.32-22.9Q306.47-19.25 305.47-16.45L305.47-16.45 302.77-16.45 302.42-20.3Q299.92-21.4 297.17-21.4L297.17-21.4 296.22-21.35Q294.62-20.35 294.62-18.5Z" opacity="1" transform="matrix(1,0,0,1,0,0)" fill="black" class="wordmark-text-0" id="SvgjsPath3099" stroke-width="4" stroke="black" stroke-linejoin="round"></path></svg></g></svg></g></svg></g></svg></g></svg></g></svg></g></svg></g></mask><g mask="url(#be11bd20-3d2e-4d4c-aae9-9f0a0774122f)"><g><path d="M224.973 16.396l1.979 10.556-28.038 10.225v193.627l-33.975 3.628-117.099-187.359 5.937 45.85v119.079l29.358 3.298-0.33 15.504h-79.826l-1.979-10.556 28.038-10.225v-175.485l-21.441-2.638 0.33-15.504h58.715l113.471 182.741-6.268-44.86v-118.749l-31.996-3.628 0.33-15.504zM394.52 174.068v0c0 18.472-6.927 33.645-20.781 45.521-13.854 11.875-31.227 17.812-52.118 17.812v0c-11.875 0-24.739-2.023-38.593-6.07-13.854-4.09-24.19-9.654-31.006-16.69v0l-0.33-11.545c0-16.273 1.209-31.007 3.628-44.201v0h17.812l4.618 39.583c15.173 11.435 33.536 17.153 55.087 17.152v0l11.215-0.659c12.754-6.817 19.132-18.032 19.132-33.646v0c0-13.414-7.697-24.519-23.09-33.316v0l-53.437-27.708c-22.21-13.194-33.316-30.127-33.316-50.798v0c0-17.592 7.257-31.952 21.771-43.079 14.514-11.083 32.876-16.625 55.086-16.625v0c15.393 0 33.536 3.409 54.426 10.226v0l0.33 11.545c0 16.053-1.209 30.787-3.628 44.201v0h-17.813l-3.298-30.017c-12.535-9.676-27.598-14.514-45.191-14.514v0l-15.173 1.319c-10.555 6.377-15.833 16.383-15.833 30.017v0c0 12.535 7.587 22.98 22.76 31.337v0l52.777 26.718c23.31 13.414 34.965 31.227 34.965 53.437z" fill="#000000" fill-rule="nonzero" stroke="none" stroke-width="1" stroke-linecap="butt" stroke-linejoin="miter" stroke-miterlimit="10" stroke-dasharray="" stroke-dashoffset="0" font-family="none" font-weight="none" font-size="none" text-anchor="none" style="mix-blend-mode: normal" data-fill-palette-color="tertiary"></path></g></g><g transform="matrix(1,0,0,1,0,99.01569260574749)"><svg viewBox="0 0 395.52 49.168614788505" height="49.168614788505" width="395.52"><g><svg viewBox="0 0 395.52 49.168614788505" height="49.168614788505" width="395.52"><g><svg viewBox="0 0 395.52 49.168614788505" height="49.168614788505" width="395.52"><g><svg viewBox="0 0 395.52 49.168614788505" height="49.168614788505" width="395.52"><g id="textblocktransform"><svg viewBox="0 0 395.52 49.168614788505" height="49.168614788505" width="395.52" id="textblock"><g><svg viewBox="0 0 395.52 49.168614788505" height="49.168614788505" width="395.52"><g transform="matrix(1,0,0,1,0,0)"><svg width="395.52" viewBox="-1 -36 310.67 39.5" height="49.168614788505" data-palette-color="#000000"><path d="M35.45-32.5L35.75-30.9 31.5-29.35 31.5 0 26.35 0.55 8.6-27.85 9.5-20.9 9.5-2.85 13.95-2.35 13.9 0 1.8 0 1.5-1.6 5.75-3.15 5.75-29.75 2.5-30.15 2.55-32.5 11.45-32.5 28.65-4.8 27.7-11.6 27.7-29.6 22.85-30.15 22.9-32.5 35.45-32.5ZM54.05-12.85L41.2-13.1Q41.2-8.15 43.47-5.6 45.75-3.05 49.4-3.05L49.4-3.05Q52.1-3.05 55.8-4.7L55.8-4.7 56.55-2.55 48.75 0.75Q43.25 0.75 39.87-2.63 36.5-6 36.5-11.3L36.5-11.3Q36.5-16.7 39.82-20.55 43.15-24.4 47.95-24.4L47.95-24.4Q50.55-24.4 52.62-23.25 54.7-22.1 55.82-20.1 56.95-18.1 56.9-15.65L56.9-15.65 54.05-12.85ZM45.45-21.35L45.45-21.35Q42.6-19.85 41.6-15.75L41.6-15.75 52.55-16.25Q52.05-18.65 50.07-20.1 48.1-21.55 45.45-21.35ZM73.5-12.4L80.5-3.15Q82.7-2.9 83.8-2.4L83.8-2.4 83.5 0 73.3 0 73.05-1.65 75.9-2.75 70.45-9.8 65.55-3.1Q67.34-2.85 68.5-2.4L68.5-2.4 68.2 0 58.05 0 57.8-1.65 60.84-2.8 68.5-12.3 61.95-20.75 59.09-20.95 59.15-23.4 68.9-23.4 69.2-21.6 67.15-20.8 71.7-14.8 76.09-20.8 73.45-20.95 73.5-23.4 82.59-23.4 82.9-21.6 79.9-20.45 73.5-12.4ZM110.69-3.75L111.44-1.55 106.39 0.75Q105.59 0.65 104.42-0.5 103.24-1.65 102.79-2.95L102.79-2.95Q100.29-1.35 97.49-0.3 94.69 0.75 93.14 0.75L93.14 0.75Q90.39 0.15 88.74-2.5L88.74-2.5Q87.94-3.65 87.89-7.05L87.89-7.05 87.89-20.6 84.14-20.3 83.54-22.65Q86.89-24.1 90.34-24.2L90.34-24.2 92.34-22.45 92.34-7.4Q92.49-3.1 95.64-3.1L95.64-3.1Q98.39-3.1 102.64-5.7L102.64-5.7 102.64-20.6 98.89-20.3 98.29-22.65Q101.64-24.1 105.09-24.2L105.09-24.2 107.09-22.45 107.09-4.3Q107.09-3.3 108.39-3.3L108.39-3.3Q109.14-3.3 110.69-3.75L110.69-3.75ZM118.09-18.5L118.09-18.5Q118.09-16.9 119.39-15.95 120.69-15 123.39-13.8L123.39-13.8 126.34-12.45Q130.64-10.2 130.64-6.25L130.64-6.25Q130.64-3.05 128.24-1.03 125.84 1 122.04 1L122.04 1Q117.89 1 113.19-1.6L113.19-1.6 115.04-6Q119.74-2.8 124.94-2.1L124.94-2.1Q126.29-3.3 126.29-5 126.29-6.7 125.04-7.75 123.79-8.8 120.12-10.43 116.44-12.05 115.17-13.58 113.89-15.1 113.89-17.25L113.89-17.25Q113.89-20.4 116.57-22.4 119.24-24.4 123.39-24.4L123.39-24.4Q126.89-24.4 129.79-22.9L129.79-22.9Q129.94-19.25 128.94-16.45L128.94-16.45 126.24-16.45 125.89-20.3Q123.39-21.4 120.64-21.4L120.64-21.4 119.69-21.35Q118.09-20.35 118.09-18.5ZM170.54-8.6L170.54-8.6Q170.54-4.4 167.39-1.7 164.24 1 159.49 1L159.49 1Q156.79 1 153.64 0.08 150.49-0.85 148.94-2.45L148.94-2.45 148.89-4.2Q148.89-7.9 149.44-10.9L149.44-10.9 152.14-10.9 152.84-4.9Q156.29-2.3 161.19-2.3L161.19-2.3 162.89-2.4Q165.79-3.95 165.79-7.5L165.79-7.5Q165.79-10.55 162.29-12.55L162.29-12.55 154.19-16.75Q149.14-19.75 149.14-24.45L149.14-24.45Q149.14-28.45 152.44-30.98 155.74-33.5 160.79-33.5L160.79-33.5Q164.29-33.5 169.04-31.95L169.04-31.95 169.09-30.2Q169.09-26.55 168.54-23.5L168.54-23.5 165.84-23.5 165.34-28.05Q162.49-30.25 158.49-30.25L158.49-30.25 156.19-30.05Q153.79-28.6 153.79-25.5L153.79-25.5Q153.79-22.65 157.24-20.75L157.24-20.75 165.24-16.7Q170.54-13.65 170.54-8.6ZM192.48-2L185.68 0.75Q180.28 0.8 177.03-2.63 173.78-6.05 173.78-11.7L173.78-11.7Q173.78-17.25 177.01-20.83 180.23-24.4 185.18-24.4L185.18-24.4Q189.38-24.4 192.78-21.1L192.78-21.1 190.13-17.55Q185.73-20.95 181.53-21.25L181.53-21.25Q178.43-17.65 178.43-12.7L178.43-12.7Q178.43-8.4 180.56-5.68 182.68-2.95 186.43-2.95L186.43-2.95Q189.03-2.95 191.63-4.1L191.63-4.1 192.48-2ZM214.08-23.15L214.08-23.15Q214.28-19.45 213.18-15.05L213.18-15.05 210.48-15.05 209.93-20.55Q205.88-18.3 203.08-14.6L203.08-14.6 203.08-3.3Q206.73-3.05 208.23-2.4L208.23-2.4 207.93 0 195.23 0 194.98-1.65 198.63-3 198.63-20.6 194.88-20.3 194.28-22.65Q197.63-24.1 201.08-24.2L201.08-24.2 203.08-22.45 203.08-17.9 208.33-23.5Q209.78-24.1 210.98-24.1L210.98-24.1Q212.58-24.1 214.08-23.15ZM232.93-12.85L220.08-13.1Q220.08-8.15 222.35-5.6 224.63-3.05 228.28-3.05L228.28-3.05Q230.98-3.05 234.68-4.7L234.68-4.7 235.43-2.55 227.63 0.75Q222.13 0.75 218.75-2.63 215.38-6 215.38-11.3L215.38-11.3Q215.38-16.7 218.7-20.55 222.03-24.4 226.83-24.4L226.83-24.4Q229.43-24.4 231.5-23.25 233.58-22.1 234.7-20.1 235.83-18.1 235.78-15.65L235.78-15.65 232.93-12.85ZM224.33-21.35L224.33-21.35Q221.48-19.85 220.48-15.75L220.48-15.75 231.43-16.25Q230.93-18.65 228.95-20.1 226.98-21.55 224.33-21.35ZM255.48-12.85L242.63-13.1Q242.63-8.15 244.9-5.6 247.18-3.05 250.83-3.05L250.83-3.05Q253.53-3.05 257.23-4.7L257.23-4.7 257.98-2.55 250.18 0.75Q244.68 0.75 241.3-2.63 237.93-6 237.93-11.3L237.93-11.3Q237.93-16.7 241.25-20.55 244.58-24.4 249.38-24.4L249.38-24.4Q251.98-24.4 254.05-23.25 256.13-22.1 257.25-20.1 258.38-18.1 258.33-15.65L258.33-15.65 255.48-12.85ZM246.88-21.35L246.88-21.35Q244.03-19.85 243.03-15.75L243.03-15.75 253.98-16.25Q253.48-18.65 251.5-20.1 249.53-21.55 246.88-21.35ZM283.97-15.35L283.97-3.2Q286.52-2.85 287.47-2.4L287.47-2.4 287.17 0 276.92 0 276.67-1.65 279.52-2.75 279.52-14.8Q279.52-20.2 276.32-20.2L276.32-20.2Q273.42-20.2 268.52-16.45L268.52-16.45 268.52-3.15Q270.62-2.9 271.77-2.4L271.77-2.4 271.47 0 260.77 0 260.52-1.65 264.07-2.95 264.07-20.6 260.32-20.3 259.72-22.65Q263.07-24.1 266.52-24.2L266.52-24.2 268.52-22.45 268.52-19.15Q276.02-24.2 278.72-24.2L278.72-24.2Q280.17-23.95 281.65-22.73 283.12-21.5 283.55-20.2 283.97-18.9 283.97-15.35L283.97-15.35ZM294.62-18.5L294.62-18.5Q294.62-16.9 295.92-15.95 297.22-15 299.92-13.8L299.92-13.8 302.87-12.45Q307.17-10.2 307.17-6.25L307.17-6.25Q307.17-3.05 304.77-1.03 302.37 1 298.57 1L298.57 1Q294.42 1 289.72-1.6L289.72-1.6 291.57-6Q296.27-2.8 301.47-2.1L301.47-2.1Q302.82-3.3 302.82-5 302.82-6.7 301.57-7.75 300.32-8.8 296.65-10.43 292.97-12.05 291.7-13.58 290.42-15.1 290.42-17.25L290.42-17.25Q290.42-20.4 293.1-22.4 295.77-24.4 299.92-24.4L299.92-24.4Q303.42-24.4 306.32-22.9L306.32-22.9Q306.47-19.25 305.47-16.45L305.47-16.45 302.77-16.45 302.42-20.3Q299.92-21.4 297.17-21.4L297.17-21.4 296.22-21.35Q294.62-20.35 294.62-18.5Z" opacity="1" transform="matrix(1,0,0,1,0,0)" fill="#000000" class="wordmark-text-0" data-fill-palette-color="primary" id="text-0"></path></svg></g></svg></g></svg></g></svg></g></svg></g></svg></g></svg></g></svg></g><defs></defs></svg><rect width="395.52" height="247.2" fill="none" stroke="none" visibility="hidden"></rect></g></svg></g></svg>